<?xml version="1.0" encoding="UTF-8"?>
<svg width="25px" height="25px" viewBox="0 0 25 25" version="1.1" xmlns="http://www.w3.org/2000/svg" xmlns:xlink="http://www.w3.org/1999/xlink">
    <!-- Generator: Sketch 58 (84663) - https://sketch.com -->
    <title>github</title>
    <desc>Created with Sketch.</desc>
    <g id="Page-1" stroke="none" stroke-width="1" fill="none" fill-rule="evenodd">
        <g id="github" fill="#FFFFFF" fill-rule="nonzero">
            <path d="M12.5,0 C5.59375,0 0,5.59375 0,12.5 C0,18.03125 3.578125,22.703125 8.546875,24.359375 C9.171875,24.46875 9.40625,24.09375 9.40625,23.765625 C9.40625,23.46875 9.390625,22.484375 9.390625,21.4375 C6.25,22.015625 5.4375,20.671875 5.1875,19.96875 C5.046875,19.609375 4.4375,18.5 3.90625,18.203125 C3.46875,17.96875 2.84375,17.390625 3.890625,17.375 C4.875,17.359375 5.578125,18.28125 5.8125,18.65625 C6.9375,20.546875 8.734375,20.015625 9.453125,19.6875 C9.5625,18.875 9.890625,18.328125 10.25,18.015625 C7.46875,17.703125 4.5625,16.625 4.5625,11.84375 C4.5625,10.484375 5.046875,9.359375 5.84375,8.484375 C5.71875,8.171875 5.28125,6.890625 5.96875,5.171875 C5.96875,5.171875 7.015625,4.84375 9.40625,6.453125 C10.40625,6.171875 11.46875,6.03125 12.53125,6.03125 C13.59375,6.03125 14.65625,6.171875 15.65625,6.453125 C18.046875,4.828125 19.09375,5.171875 19.09375,5.171875 C19.78125,6.890625 19.34375,8.171875 19.21875,8.484375 C20.015625,9.359375 20.5,10.46875 20.5,11.84375 C20.5,16.640625 17.578125,17.703125 14.796875,18.015625 C15.25,18.40625 15.640625,19.15625 15.640625,20.328125 C15.640625,22 15.625,23.34375 15.625,23.765625 C15.625,24.09375 15.859375,24.484375 16.484375,24.359375 C21.421875,22.703125 25,18.015625 25,12.5 C25,5.59375 19.40625,0 12.5,0 Z" id="Path"></path>

        </g>
    </g>
</svg>