<?xml version="1.0" encoding="UTF-8"?>
<svg width="25px" height="28px" viewBox="0 0 25 28" version="1.1" xmlns="http://www.w3.org/2000/svg" xmlns:xlink="http://www.w3.org/1999/xlink">
    <!-- Generator: Sketch 58 (84663) - https://sketch.com -->
    <title>Combined Shape</title>
    <desc>Created with Sketch.</desc>
    <g id="Page-1" stroke="none" stroke-width="1" fill="none" fill-rule="evenodd">
        <g id="Desktop-HD" transform="translate(-997.000000, -1352.000000)" fill="#F4F4F4" fill-rule="nonzero">
            <path d="M1002.6386,1374.39518 C1000.73302,1373.67381 998.916614,1372.64107 997.266367,1371.29695 C997.262688,1371.29408 997.259044,1371.29117 997.255434,1371.28824 C996.995088,1371.07568 996.928773,1370.71348 997.079487,1370.42713 L999.851116,1364.88387 C1000.0398,1364.50651 1000.51861,1364.3832 1000.8661,1364.62248 C1002.19462,1365.53732 1003.63219,1366.21839 1005.12308,1366.6657 L1007.35027,1359.73666 C1006.14157,1359.00725 1005.33335,1357.68134 1005.33335,1356.16666 C1005.33335,1353.86548 1007.19883,1352 1009.50002,1352 C1011.8012,1352 1013.66668,1353.86548 1013.66668,1356.16666 C1013.66668,1357.68134 1012.85847,1359.00725 1011.64977,1359.73666 L1013.87696,1366.6657 C1015.36785,1366.21839 1016.80542,1365.53732 1018.13394,1364.62248 C1018.48142,1364.3832 1018.96024,1364.50651 1019.14892,1364.88387 L1021.92055,1370.42713 C1022.07127,1370.71348 1022.00495,1371.07568 1021.74451,1371.28812 C1021.74099,1371.29117 1021.73735,1371.29408 1021.73367,1371.29695 C1020.08342,1372.64107 1018.26702,1373.67381 1016.36144,1374.39518 L1017.80003,1378.87081 C1017.9174,1379.23595 1017.71654,1379.62709 1017.35141,1379.74445 C1016.98628,1379.86181 1016.59514,1379.66096 1016.47777,1379.29583 L1015.04551,1374.83989 C1011.4312,1375.91817 1007.56884,1375.91817 1003.95453,1374.83989 L1002.52226,1379.29583 C1002.4049,1379.66096 1002.01376,1379.86181 1001.64863,1379.74445 C1001.2835,1379.62709 1001.08264,1379.23595 1001.2,1378.87081 L1002.6386,1374.39518 L1002.6386,1374.39518 Z M1006.47314,1367.00423 C1008.46991,1367.40881 1010.53013,1367.40881 1012.5269,1367.00423 L1010.3545,1360.24563 C1010.07869,1360.30311 1009.79288,1360.33333 1009.50002,1360.33333 C1009.20715,1360.33333 1008.92135,1360.30311 1008.64554,1360.24563 L1006.47314,1367.00423 L1006.47314,1367.00423 Z M998.568108,1370.55554 C1005.0148,1375.49443 1013.98524,1375.49443 1020.43193,1370.55554 L1018.25528,1366.20223 C1012.89559,1369.52799 1006.10445,1369.52799 1000.74476,1366.20223 L998.568108,1370.55554 L998.568108,1370.55554 Z M1009.50002,1358.94444 C1011.03414,1358.94444 1012.2778,1357.70079 1012.2778,1356.16666 C1012.2778,1354.63254 1011.03414,1353.38889 1009.50002,1353.38889 C1007.9659,1353.38889 1006.72224,1354.63254 1006.72224,1356.16666 C1006.72224,1357.70079 1007.9659,1358.94444 1009.50002,1358.94444 Z" id="Combined-Shape"></path>
        </g>
    </g>
</svg>