<?xml version="1.0" encoding="UTF-8"?>
<svg width="20px" height="20px" viewBox="0 0 20 20" version="1.1" xmlns="http://www.w3.org/2000/svg" xmlns:xlink="http://www.w3.org/1999/xlink">
    <!-- Generator: Sketch 58 (84663) - https://sketch.com -->
    <title>Combined Shape</title>
    <desc>Created with Sketch.</desc>
    <g id="Page-1" stroke="none" stroke-width="1" fill="none" fill-rule="evenodd">
        <g id="Desktop-HD" transform="translate(-1049.000000, -1360.000000)" fill="#FFFFFF" fill-rule="nonzero">
            <path d="M1054.5,1360 C1055.88071,1360 1057,1361.11929 1057,1362.5 L1057,1372 L1066.5,1372 C1067.88071,1372 1069,1373.11929 1069,1374.5 L1069,1377.5 C1069,1378.88071 1067.88071,1380 1066.5,1380 L1051.5,1380 C1050.11929,1380 1049,1378.88071 1049,1377.5 L1049,1362.5 C1049,1361.11929 1050.11929,1360 1051.5,1360 L1054.5,1360 Z M1054.5,1361 L1051.5,1361 C1050.67157,1361 1050,1361.67157 1050,1362.5 L1050,1377.5 C1050,1378.32843 1050.67157,1379 1051.5,1379 L1054.5,1379 C1055.15311,1379 1055.70873,1378.5826 1055.91465,1378 L1052.5,1378 C1052.22386,1378 1052,1377.77614 1052,1377.5 C1052,1377.22386 1052.22386,1377 1052.5,1377 L1056,1377 L1056,1375 L1053.5,1375 C1053.22386,1375 1053,1374.77614 1053,1374.5 C1053,1374.22386 1053.22386,1374 1053.5,1374 L1056,1374 L1056,1372 L1052.5,1372 C1052.22386,1372 1052,1371.77614 1052,1371.5 C1052,1371.22386 1052.22386,1371 1052.5,1371 L1056,1371 L1056,1369 L1053.5,1369 C1053.22386,1369 1053,1368.77614 1053,1368.5 C1053,1368.22386 1053.22386,1368 1053.5,1368 L1056,1368 L1056,1366 L1052.5,1366 C1052.22386,1366 1052,1365.77614 1052,1365.5 C1052,1365.22386 1052.22386,1365 1052.5,1365 L1056,1365 L1056,1363 L1053.5,1363 C1053.22386,1363 1053,1362.77614 1053,1362.5 C1053,1362.22386 1053.22386,1362 1053.5,1362 L1055.91465,1362 C1055.70873,1361.4174 1055.15311,1361 1054.5,1361 Z M1066.5,1373 L1057,1373 L1057,1377.5 C1057,1378.0628 1056.81403,1378.58217 1056.50018,1379 L1066.5,1379 C1067.32843,1379 1068,1378.32843 1068,1377.5 L1068,1374.5 C1068,1373.67157 1067.32843,1373 1066.5,1373 Z M1066,1374 C1066.55228,1374 1067,1374.44772 1067,1375 L1067,1377 C1067,1377.55228 1066.55228,1378 1066,1378 L1064,1378 C1063.44772,1378 1063,1377.55228 1063,1377 L1063,1375 C1063,1374.44772 1063.44772,1374 1064,1374 L1066,1374 Z M1066,1375 L1064,1375 L1064,1377 L1066,1377 L1066,1375 Z" id="Combined-Shape"></path>
        </g>
    </g>
</svg>