<?xml version="1.0" encoding="UTF-8"?>
<svg width="25px" height="24px" viewBox="0 0 25 24" version="1.1" xmlns="http://www.w3.org/2000/svg" xmlns:xlink="http://www.w3.org/1999/xlink">
    <!-- Generator: Sketch 58 (84663) - https://sketch.com -->
    <title>linkedin (1)</title>
    <desc>Created with Sketch.</desc>
    <g id="Page-1" stroke="none" stroke-width="1" fill="none" fill-rule="evenodd">
        <g id="linkedin-(1)" fill="#FFFFFF" fill-rule="nonzero">
            <polygon id="Path" points="0.316810596 7.79705049 5.67588809 7.79705049 5.67588809 23.9204407 0.316810596 23.9204407"></polygon>
            <path d="M3.03173066,0.0244140625 C1.19857788,0.0244140625 0,1.2281418 0,2.8102875 C0,4.35752871 1.16291045,5.59558867 2.96134951,5.59558867 L2.99625396,5.59558867 C4.86526489,5.59558867 6.02836611,4.35752871 6.02836611,2.8102875 C5.99346162,1.2281418 4.86526489,0.0244140625 3.03173066,0.0244140625 Z" id="Path"></path>
            <path d="M18.8302994,7.41863252 C15.986824,7.41863252 14.7127151,8.98132324 14.0005112,10.0801468 L14.0005112,7.79705049 L8.64124297,7.79705049 L8.64124297,23.9204407 L14.0003204,23.9204407 L14.0003204,14.91642 C14.0003204,14.434433 14.0352249,13.9532089 14.1767502,13.608551 C14.5641327,12.6459122 15.4459,11.6487503 16.926384,11.6487503 C18.8655854,11.6487503 19.641304,13.127327 19.641304,15.2948379 L19.641304,23.9204407 L25,23.9204407 L25,14.6755219 C25,9.72309111 22.3560333,7.41863252 18.8302994,7.41863252 L18.8302994,7.41863252 Z" id="Path"></path>
        </g>
    </g>
</svg>

