<?xml version="1.0" encoding="UTF-8"?>
<svg width="25px" height="21px" viewBox="0 0 25 21" version="1.1" xmlns="http://www.w3.org/2000/svg" xmlns:xlink="http://www.w3.org/1999/xlink">
    <!-- Generator: Sketch 58 (84663) - https://sketch.com -->
    <title>medium</title>
    <desc>Created with Sketch.</desc>
    <g id="Page-1" stroke="none" stroke-width="1" fill="none" fill-rule="evenodd">
        <g id="medium" transform="translate(0.000000, 0.666667)" fill="#FFFFFF" fill-rule="nonzero">
            <path d="M23.0052083,2.35859375 L25,0.450260417 L25,0.0325520833 L18.0895833,0.0325520833 L13.1645833,12.2908854 L7.56145833,0.0325520833 L0.315625,0.0325520833 L0.315625,0.450260417 L2.64583333,3.25546875 C2.87291667,3.46276042 2.99166667,3.76588542 2.96145833,4.07109375 L2.96145833,15.0950521 C3.03333333,15.4919271 2.90416667,15.9002604 2.625,16.1888021 L0,19.3700521 L0,19.7825521 L7.44270833,19.7825521 L7.44270833,19.3648438 L4.81770833,16.1888021 C4.53333333,15.8992188 4.39895833,15.4981771 4.45625,15.0950521 L4.45625,5.55963542 L10.9895833,19.7877604 L11.7489583,19.7877604 L17.3666667,5.55963542 L17.3666667,16.8940104 C17.3666667,17.1929688 17.3666667,17.2544271 17.1708333,17.4502604 L15.15,19.4054688 L15.15,19.8242188 L24.9541667,19.8242188 L24.9541667,19.4065104 L23.00625,17.4992188 C22.8354167,17.3700521 22.746875,17.1533854 22.7833333,16.9429688 L22.7833333,2.91484375 C22.746875,2.70338542 22.834375,2.48671875 23.0052083,2.35859375 L23.0052083,2.35859375 Z" id="Path"></path>
        </g>
    </g>
</svg>